<?xml version="1.0" encoding="utf-8"?>
<!-- Generator: Adobe Illustrator 25.0.0, SVG Export Plug-In . SVG Version: 6.00 Build 0)  -->
<svg version="1.1" id="Layer_1" xmlns="http://www.w3.org/2000/svg" xmlns:xlink="http://www.w3.org/1999/xlink" x="0px" y="0px"
	 viewBox="0 0 3000 955.2" style="enable-background:new 0 0 3000 955.2;" xml:space="preserve">
<style type="text/css">
	.st0{fill:#00063C;}
	.st1{fill:#FFF682;}
	.st2{fill:#11006A;}
	.st3{fill:url(#SVGID_1_);}
	.st4{fill:url(#SVGID_2_);}
	.st5{fill:url(#SVGID_3_);}
	.st6{fill:url(#SVGID_4_);}
	.st7{fill:url(#SVGID_5_);}
	.st8{fill:url(#SVGID_6_);}
	.st9{fill:url(#SVGID_7_);}
	.st10{fill:url(#SVGID_8_);}
	.st11{fill:url(#SVGID_9_);}
	.st12{fill:url(#SVGID_10_);}
	.st13{fill:url(#SVGID_11_);}
	.st14{fill:url(#SVGID_12_);}
	.st15{fill:url(#SVGID_13_);}
	.st16{fill:url(#SVGID_14_);}
	.st17{fill:#FFFFFF;}
	.st18{fill:url(#SVGID_15_);}
	.st19{fill:url(#SVGID_16_);}
	.st20{fill:url(#SVGID_17_);}
	.st21{fill:url(#SVGID_18_);}
	.st22{fill:url(#SVGID_19_);}
	.st23{fill:url(#SVGID_20_);}
	.st24{fill:url(#SVGID_21_);}
	.st25{fill:url(#SVGID_22_);}
	.st26{fill:url(#SVGID_23_);}
	.st27{fill:url(#SVGID_24_);}
	.st28{fill:url(#SVGID_25_);}
	.st29{fill:url(#SVGID_26_);}
	.st30{fill:url(#SVGID_27_);}
	.st31{fill:url(#SVGID_28_);}
</style>
<g>
	<g>
		<path class="st17" d="M1139,253.5c0-23.8,18.9-42.2,47-42.2c28.1,0,47,17.5,47,40.7c0,25.2-18.9,43.6-47,43.6
			C1157.9,295.6,1139,277.2,1139,253.5z M1148.2,332h75.6v260.8h-75.6V332z"/>
		<path class="st17" d="M1560.7,443.5v149.3h-75.6V455.1c0-42.2-19.4-61.6-52.8-61.6c-36.4,0-62.5,22.3-62.5,70.3v128.9h-75.6V332
			h72.2v30.5c20.4-22.3,50.9-34.4,86.3-34.4C1514.2,328.1,1560.7,364,1560.7,443.5z"/>
		<path class="st17" d="M1895.7,443.5v149.3h-75.6V455.1c0-42.2-19.4-61.6-52.8-61.6c-36.4,0-62.5,22.3-62.5,70.3v128.9h-75.6V233.1
			h75.6v126c20.4-20.4,49.4-31,82.9-31C1849.2,328.1,1895.7,364,1895.7,443.5z"/>
		<path class="st17" d="M1947.6,462.4c0-78.5,60.6-134.3,143.5-134.3c82.9,0,143,55.7,143,134.3c0,78.5-60.1,134.3-143,134.3
			C2008.2,596.7,1947.6,540.9,1947.6,462.4z M2157.5,462.4c0-45.1-28.6-72.2-66.4-72.2c-37.8,0-66.9,27.1-66.9,72.2
			s29.1,72.2,66.9,72.2C2128.9,534.6,2157.5,507.5,2157.5,462.4z"/>
		<path class="st17" d="M2547.2,332v260.8h-71.7v-31c-19.9,22.8-49,34.9-81,34.9c-65.4,0-111.5-36.8-111.5-117.3V332h75.6v136.2
			c0,43.6,19.4,63,52.8,63c34.9,0,60.1-22.3,60.1-70.3V332H2547.2z"/>
		<path class="st17" d="M2832.2,534.6v58.2h-232.7v-45.6l132.8-157.1H2603V332h224.9v45.6l-132.8,157.1H2832.2z"/>
	</g>
	<g>
		<path class="st17" d="M1139,697.6c0-27,20.7-46.3,48.6-46.3c15.5,0,28.4,5.6,36.8,15.9l-13.3,12.3c-6-6.9-13.6-10.5-22.5-10.5
			c-16.8,0-28.6,11.8-28.6,28.6s11.9,28.6,28.6,28.6c9,0,16.5-3.6,22.5-10.6l13.3,12.3c-8.4,10.4-21.4,16-37,16
			C1159.7,743.9,1139,724.6,1139,697.6z"/>
		<path class="st17" d="M1249.9,652.8h20.7v72.6h44.9v16.9h-65.6V652.8z"/>
		<path class="st17" d="M1331.5,697.6c0-26.6,20.7-46.3,49-46.3c28.1,0,49,19.6,49,46.3c0,26.7-20.8,46.3-49,46.3
			C1352.2,743.9,1331.5,724.2,1331.5,697.6z M1408.5,697.6c0-17-12-28.6-28-28.6c-16,0-28,11.6-28,28.6c0,17,12,28.6,28,28.6
			C1396.5,726.3,1408.5,714.6,1408.5,697.6z"/>
		<path class="st17" d="M1455.8,703v-50.1h20.7v49.4c0,17,7.4,24,20,24c12.7,0,20-7,20-24v-49.4h20.5V703
			c0,26.3-15.1,40.9-40.5,40.9C1470.9,743.9,1455.8,729.3,1455.8,703z"/>
		<path class="st17" d="M1568.9,652.8h40.7c29.3,0,49.4,17.6,49.4,44.8c0,27.1-20.1,44.8-49.4,44.8h-40.7V652.8z M1608.5,725.4
			c17.8,0,29.4-10.6,29.4-27.8c0-17.1-11.6-27.8-29.4-27.8h-18.9v55.5H1608.5z"/>
		<path class="st17" d="M1726.7,733.5l7-15.6c7.5,5.5,18.8,9.3,29.5,9.3c12.3,0,17.3-4.1,17.3-9.6c0-16.8-52.1-5.2-52.1-38.5
			c0-15.2,12.3-27.9,37.7-27.9c11.3,0,22.8,2.7,31.1,7.9l-6.4,15.7c-8.3-4.7-16.9-7-24.8-7c-12.3,0-17,4.6-17,10.2
			c0,16.5,52.1,5.1,52.1,38c0,15-12.4,27.8-38,27.8C1748.9,743.9,1734.6,739.7,1726.7,733.5z"/>
		<path class="st17" d="M1896.2,725.7v16.6h-69.3v-89.5h67.7v16.6h-47.1v19.4h41.6V705h-41.6v20.7H1896.2z"/>
		<path class="st17" d="M1981.2,742.4l-17.3-24.9h-1h-18v24.9h-20.7v-89.5h38.8c23.9,0,38.9,12.4,38.9,32.5
			c0,13.4-6.8,23.3-18.4,28.3l20.1,28.8H1981.2z M1961.8,669.7h-16.9v31.2h16.9c12.7,0,19.1-5.9,19.1-15.6
			C1980.8,675.5,1974.4,669.7,1961.8,669.7z"/>
		<path class="st17" d="M2115.8,652.8l-38.8,89.5h-20.5l-38.6-89.5h22.4l27.2,64l27.6-64H2115.8z"/>
		<path class="st17" d="M2134.7,652.8h20.7v89.5h-20.7V652.8z"/>
		<path class="st17" d="M2182.5,697.6c0-27,20.7-46.3,48.6-46.3c15.5,0,28.4,5.6,36.8,15.9l-13.3,12.3c-6-6.9-13.6-10.5-22.5-10.5
			c-16.8,0-28.6,11.8-28.6,28.6s11.9,28.6,28.6,28.6c9,0,16.5-3.6,22.5-10.6l13.3,12.3c-8.4,10.4-21.4,16-37,16
			C2203.2,743.9,2182.5,724.6,2182.5,697.6z"/>
		<path class="st17" d="M2362.7,725.7v16.6h-69.3v-89.5h67.7v16.6H2314v19.4h41.6V705H2314v20.7H2362.7z"/>
		<path class="st17" d="M2383.7,733.5l7-15.6c7.5,5.5,18.8,9.3,29.5,9.3c12.3,0,17.3-4.1,17.3-9.6c0-16.8-52.1-5.2-52.1-38.5
			c0-15.2,12.3-27.9,37.7-27.9c11.3,0,22.8,2.7,31.1,7.9l-6.4,15.7c-8.3-4.7-16.9-7-24.8-7c-12.3,0-17,4.6-17,10.2
			c0,16.5,52.1,5.1,52.1,38c0,15-12.4,27.8-38,27.8C2406,743.9,2391.6,739.7,2383.7,733.5z"/>
	</g>
	<path class="st17" d="M606.6,505.7c-3.1-9.5-6.8-18.9-11.1-27.8C565,413.9,505.4,368,436.7,354.2c12.4-66.3,70.5-115.8,139.8-115.8
		c75.8,0,138.2,59.3,142,134.9l0,0.2c0.1,2,0.2,4.3,0.2,7.1c0,7.3-0.6,14.6-1.7,21.8l-3.9,24.9h84.1l2.3-18.9
		c1.1-9.2,1.7-18.5,1.7-27.7c0-3-0.1-6-0.2-9.2c-2.3-58.1-26.7-112.4-68.7-152.8c-42.1-40.5-97.5-62.8-155.9-62.8
		c-58.4,0-113.8,22.3-155.9,62.8c-37.6,36.1-61,83.4-67.3,134.6c-48.5,8.5-93,32.8-126.6,69.6c-38,41.5-59,95.4-59,151.8
		c0,123.9,100.9,224.8,224.8,224.8h21.5v-82.6h-21.5c-78.4,0-142.2-63.8-142.2-142.2c0-73.1,54.8-134,127.5-141.5
		c4.9-0.5,9.9-0.8,14.8-0.8c6.7,0,13.5,0.5,20.3,1.5c49.5,7.1,92.1,40.3,111.3,86.7l5.5,13.3h86.1L606.6,505.7z"/>
	<path class="st17" d="M901.8,553.1v21.5c0,78.4-63.8,142.2-142.2,142.2c-69.3,0-129.6-51.5-140.5-119.9l-2.9-18.2h-82.7l3,24.2
		c3,23.8,9.7,46.8,20.1,68.4c18,37.8,46.2,69.7,81.4,92.4c36.2,23.3,78.2,35.6,121.5,35.6c124,0,224.8-100.8,224.8-224.8v-21.5
		H901.8z"/>
</g>
</svg>

