<?xml version="1.0" encoding="UTF-8"?>
<svg xmlns="http://www.w3.org/2000/svg" viewBox="0 0 493.41 138.36" fill="#f09321">
  <path d="M152.9 44.564l-.024-.893c-.124-2.118-.676-3.993-1.63-5.6-.714-1.205-1.652-2.256-2.784-3.148-1.698-1.34-3.83-2.32-6.33-2.968s-5.372-.966-8.568-.967c-4.573 0-9.813.65-15.58 1.932-.325.07-.538.383-.5.71s.344.564.676.54c1.227-.095 2.405-.14 3.53-.14 2.965-.001 5.564.328 7.73.977s3.895 1.61 5.157 2.867a4.78 4.78 0 0 0 .235.242 8.38 8.38 0 0 1 1.967 3.547.64.64 0 0 0 .188.299c.182.797.257 1.62.256 2.426a15.33 15.33 0 0 1-.204 2.433c-.047.073-.082.152-.096.24-.65 3.885-2.76 8.424-6.097 13.3-4.583 6.693-11.473 14.003-19.95 21.205-.335.26-12.875 10.024-20.846 15.316l-3.853 2.404-7.367 4.29-3.504 1.908c-9.647 5.105-18.845 8.98-27.12 11.595.016.057.024.117.038.173-2.76.86-5.564 1.61-8.385 2.214-.01-.032-.024-.062-.032-.094-2.16.49-4.23.882-6.2 1.162l-.962.132c-2.3.294-4.455.442-6.446.442-.774 0-1.522-.02-2.246-.065-2.536-.2-4.578-.723-6.218-1.38-2.462-.986-4.027-2.297-5.01-3.423-.966-1.108-1.364-2.04-1.463-2.3-.267-.803-.436-1.676-.493-2.632v.002c-.014-.235-.02-.474-.02-.716 0-1.514.264-3.157.782-4.905s1.29-3.604 2.296-5.54c.15-.294.055-.653-.226-.83s-.647-.108-.846.157c-3.027 4.045-5.41 7.95-7.044 11.627s-2.517 7.13-2.52 10.266a16.97 16.97 0 0 0 .026.935c.122 2.097.668 3.96 1.61 5.56.544 1.192 1.374 2.32 2.563 3.277.924.745 2.066 1.384 3.447 1.89.015.006.03.015.047.02l.17.05c.35.122.7.245 1.08.35l.006.003.004.001c1.26.445 2.638.79 4.12 1.04-.03-.056-.054-.117-.083-.174 4.17.734 9.97 1.158 16.364-.212.026-.005.06-.016.086-.02l1.45-.236c4.542-.748 7.61-1.664 7.63-1.67 11.392-2.936 24.57-8.136 38.545-15.534 2.305-1.222 4.577-2.48 6.82-3.764.034-.02.075-.04.13-.068h.002c8.898-4.85 14.115-8.718 14.177-8.765a230.23 230.23 0 0 0 12.851-9.226c.024-.013.043-.022.043-.022l.012-.02c5.708-4.406 10.97-8.902 15.63-13.377l1.31-1.288c.043-.04.087-.072.13-.112 1.237-1.13 2.488-2.425 3.73-3.8 1.772-1.876 3.437-3.74 4.974-5.583 2.957-3.384 7.262-10.01 7.262-10.01l.846-1.433c.932-1.466 1.7-3.048 2.305-4.57a34.2 34.2 0 0 0 .428-1.032c.006-.014.012-.017.017-.032.703-1.683 1.046-3.034 1.046-3.034l-.01-.01c.597-2.07.925-4.052.925-5.917z"></path>
  <path d="M191.53 104.43a32.14 32.14 0 0 1-1.736 10.525 31.34 31.34 0 0 1-2.146 4.883 32.19 32.19 0 0 1-2.924 4.455l-3.46 4.388-4.195-3.68-3.533-3.1-3.73-3.293 3.028-3.93a20.58 20.58 0 0 0 1.354-1.969c.412-.684.797-1.388 1.146-2.143.25-.51.442-1.078.574-1.704a8.35 8.35 0 0 0 .198-1.865v-70.61h15.425v68.042zm15.643-68.15h10.01v31.954a17.55 17.55 0 0 0 .329 3.46c.224 1.13.542 2.194.953 3.163.454 1.074.974 2.07 1.58 2.986.583.89 1.276 1.75 2.074 2.58.755.766 1.58 1.485 2.485 2.115.89.626 1.855 1.178 2.892 1.643a15 15 0 0 0 3.064 1.01c1.038.22 2.173.34 3.377.34h.324c1.21 0 2.334-.12 3.376-.34a15 15 0 0 0 3.064-1.01c1.037-.465 2-1.017 2.887-1.643.912-.63 1.736-1.35 2.49-2.115.766-.81 1.47-1.673 2.09-2.602.646-.98 1.193-1.98 1.63-2.996.442-1.01.77-2.074 1-3.178.214-1.037.313-2.173.313-3.414h.02l-.125-31.954h15.43l-.02 31.954c.037 2.215-.146 4.325-.542 6.34a29.05 29.05 0 0 1-1.928 6.128c-.844 1.908-1.84 3.716-3.006 5.43-1.184 1.725-2.486 3.313-3.93 4.752s-3.028 2.747-4.752 3.93c-1.714 1.167-3.523 2.168-5.43 3.012-3.934 1.725-8.056 2.595-12.36 2.595h-.745a30.51 30.51 0 0 1-12.361-2.595c-1.902-.844-3.7-1.845-5.425-3.012a32.84 32.84 0 0 1-4.737-3.93l-.016-.015c-1.47-1.47-2.778-3.05-3.93-4.737a33.31 33.31 0 0 1-3.002-5.431c-.87-1.97-1.506-4.038-1.907-6.2-.38-2.032-.53-4.122-.47-6.27h-.01V36.28h5.304zm73.06-19.067l4.81-4.93 9.088-9.275-.113 65.227a18.32 18.32 0 0 0 .322 3.476 17.38 17.38 0 0 0 .975 3.226c.46 1.1 1 2.1 1.58 3.017a17.33 17.33 0 0 0 2.053 2.569c.776.808 1.595 1.51 2.47 2.12l.01-.02c.943.662 1.923 1.22 2.934 1.673a14.94 14.94 0 0 0 3.117 1.006 16.68 16.68 0 0 0 3.396.334c1.2 0 2.34-.115 3.383-.334 1.03-.22 2.06-.547 3.063-1.006a18.42 18.42 0 0 0 2.925-1.673l.004.02c.892-.625 1.735-1.34 2.544-2.157.745-.76 1.438-1.626 2.084-2.6h.006a19.74 19.74 0 0 0 1.625-2.996c.46-1.085.797-2.153 1.017-3.216.208-1.038.313-2.194.313-3.45 0-1.23-.104-2.366-.313-3.403-.224-1.105-.558-2.163-.995-3.174-.434-.984-.97-1.964-1.616-2.93-.6-.88-1.276-1.704-2.048-2.475-.823-.818-1.64-1.506-2.47-2.063a17.8 17.8 0 0 0-2.928-1.6c-1.022-.448-2.054-.786-3.092-.995-1.025-.213-2.162-.318-3.392-.318-.443 0-.818.01-1.115.032-.338.026-.692.063-1.064.12l-1.297.198c-.182.03-.614.125-1.313.276l-4.284.917V37.28l.084-.026a33.13 33.13 0 0 1 2.209-.573 37.17 37.17 0 0 1 2.23-.396c.74-.1 1.495-.183 2.262-.235v-.005a30.14 30.14 0 0 1 2.288-.089c4.352 0 8.516.865 12.496 2.595 1.954.854 3.777 1.855 5.47 3.012a31.24 31.24 0 0 1 4.749 3.96c1.462 1.5 2.76 3.07 3.893 4.736a35.25 35.25 0 0 1 2.974 5.409 30.2 30.2 0 0 1 1.935 6.123c.442 2.142.655 4.29.655 6.44 0 2.132-.213 4.257-.655 6.394-.438 2.105-1.085 4.143-1.935 6.114-.845 1.917-1.834 3.735-2.974 5.44a32.7 32.7 0 0 1-3.893 4.773c-1.46 1.485-3.045 2.814-4.75 3.97-1.693 1.147-3.517 2.146-5.47 3-1.975.86-4.007 1.507-6.112 1.935-2.138.442-4.264.66-6.384.66-4.352 0-8.515-.86-12.496-2.596a33.75 33.75 0 0 1-5.461-2.979c-1.736-1.17-3.34-2.48-4.8-3.93-1.486-1.47-2.825-3.054-4.003-4.768a34.3 34.3 0 0 1-3.059-5.462c-1.77-3.97-2.6-8.165-2.445-12.553h-.015V18.78l1.538-1.57zm129.84 83.21h-10V68.458c0-1.21-.11-2.372-.328-3.47-.22-1.115-.542-2.194-.97-3.226a19.14 19.14 0 0 0-1.584-3.022 18.11 18.11 0 0 0-2.053-2.569c-.73-.755-1.56-1.46-2.48-2.1-.944-.65-1.92-1.214-2.924-1.662s-2.048-.787-3.127-1.016c-1.052-.22-2.184-.324-3.392-.324h-.214c-1.21 0-2.346.104-3.393.324a15.57 15.57 0 0 0-3.127 1.016 18.72 18.72 0 0 0-2.933 1.662c-.912.64-1.736 1.345-2.472 2.1-.78.808-1.47 1.667-2.06 2.57a18.35 18.35 0 0 0-1.573 3.022 16.56 16.56 0 0 0-.98 3.226 18.26 18.26 0 0 0-.323 3.471h-.02l.13 31.963h-15.43V68.458c0-2.054.218-4.122.646-6.212.42-2.06 1.053-4.055 1.87-5.982.834-1.923 1.804-3.736 2.93-5.425s2.397-3.278 3.826-4.752a32.29 32.29 0 0 1 4.657-3.976c1.668-1.172 3.466-2.2 5.384-3.1 1.943-.896 3.976-1.6 6.097-2.063 2.074-.47 4.23-.725 6.472-.766l.083-.02h.643l.098.02c4.367.088 8.463.985 12.277 2.7a33.63 33.63 0 0 1 5.32 2.997c1.673 1.162 3.22 2.46 4.648 3.903 1.418 1.448 2.706 3.017 3.852 4.72s2.126 3.49 2.954 5.373c1.69 3.846 2.622 7.973 2.788 12.386l.02.188v31.963h-5.3zm72.455.1h-10.01V68.458c0-1.194-.11-2.304-.317-3.335a15.87 15.87 0 0 0-1.001-3.137 17.87 17.87 0 0 0-1.615-2.959 16.9 16.9 0 0 0-2.063-2.543 17 17 0 0 0-2.48-2.069 17.12 17.12 0 0 0-2.914-1.61c-1-.443-2.063-.77-3.162-.996-1.04-.208-2.173-.318-3.42-.318-1.23 0-2.365.1-3.392.318-1.037.208-2.07.542-3.09.996a17.85 17.85 0 0 0-2.907 1.61 16.41 16.41 0 0 0-2.465 2.069c-.746.756-1.44 1.605-2.07 2.543a18.55 18.55 0 0 0-1.621 2.944c-.446 1.027-.776 2.053-.99 3.085s-.317 2.173-.317 3.403.108 2.375.317 3.407a15.98 15.98 0 0 0 .989 3.168c.433.99.976 1.97 1.627 2.928.594.882 1.275 1.716 2.048 2.486l-.01.01c.777.777 1.605 1.465 2.465 2.054.86.58 1.84 1.12 2.934 1.595 1.02.453 2.054.782 3.09.995 1.026.22 2.162.318 3.392.318.77 0 1.497-.052 2.185-.155a16.51 16.51 0 0 0 1.229-.204c.364-.063.766-.157 1.192-.245l4.564-1.06v15.63l-.18.058c-.804.234-1.538.417-2.205.567-.698.156-1.443.28-2.236.4a34.86 34.86 0 0 1-2.276.24c-.833.052-1.584.093-2.272.093a31.01 31.01 0 0 1-12.491-2.604c-1.96-.845-3.782-1.855-5.477-3.002a32.71 32.71 0 0 1-4.751-3.976c-1.455-1.486-2.764-3.064-3.878-4.722-1.146-1.688-2.136-3.486-2.977-5.414a30.08 30.08 0 0 1-1.937-6.124 32.15 32.15 0 0 1-.663-6.445c0-4.122.823-8.13 2.45-12.043a34.51 34.51 0 0 1 2.877-5.456c1.12-1.72 2.38-3.33 3.776-4.8a31.9 31.9 0 0 1 4.712-4.102c1.68-1.193 3.502-2.24 5.456-3.132 2.018-.922 4.102-1.6 6.258-2.058 2.185-.458 4.4-.688 6.645-.688 4.356 0 8.526.87 12.507 2.595 1.97.86 3.788 1.85 5.46 2.992v.015c1.777 1.204 3.37 2.517 4.79 3.93h-.01c1.453 1.454 2.77 3.044 3.938 4.78h.02c1.13 1.667 2.12 3.497 2.98 5.466a30.99 30.99 0 0 1 2.601 12.502v32.064h-5.305z" fill-rule="evenodd"></path>
  <path d="M108.4 62.477c0-2.782 2.254-5.035 5.034-5.035 2.425 0 4.447 1.712 4.926 3.994a15.73 15.73 0 0 0 1.083-4.308 56.22 56.22 0 0 0-5.552-21.742l-.043.002-.008-.112c-6.67-13.7-18.703-24.282-33.367-29.045 0 0-4.902-2.38-15.297-2.83.023-.006.046-.017.07-.024-.418-.018-.863-.026-1.315-.03 1.954 1.38 3.233 3.65 3.233 6.226 0 4.208-3.412 7.62-7.62 7.62S51.9 13.78 51.9 9.57c0-2.146.9-4.08 2.317-5.466-1.227.208-2.486.457-3.79.777-15.435 3.503-28.454 13.335-36.224 26.612l-.014.001-.4.728-.676 1.19c.017-.001.034-.001.05-.001-.44.853-.986 1.952-1.566 3.21.858.796 1.404 1.924 1.404 3.188a4.36 4.36 0 0 1-4.354 4.359c-.576 1.86-1.026 3.744-1.224 5.505v.002c-.11.598-.212 1.198-.303 1.802-.024.15-.042.274-.056.393a56.93 56.93 0 0 0-.581 8.109 56.28 56.28 0 0 0 5.306 23.934c.03-.015.064-.027.095-.042 1.058 2.242 2.324 4.52 3.82 6.82-.036.023-.068.05-.105.073 2 3.087 4.33 5.95 6.887 8.582.114.122.218.245.334.368.724.77 1.39 1.396 2.016 1.912 2.776 2.545 5.793 4.832 9.037 6.786 2.456 1.1 6.065 1.905 10.72.857 1.022-.27 2.112-.602 3.292-1.007l.664-.25c-.576-.58-.933-1.378-.933-2.26 0-1.77 1.434-3.202 3.203-3.202s3.202 1.434 3.202 3.202c0 .155-.024.304-.045.453 5.214-1.882 13.788-5.405 22.364-10.798.02-.012.037-.026.056-.04l.928-.545c2.008-1.14 3.975-2.33 5.915-3.528-.97-.674-1.606-1.793-1.606-3.062a3.73 3.73 0 0 1 3.73-3.731c1.8 0 3.304 1.276 3.654 2.975l1.02-.684c.003.033.01.067.01.1 8.973-6.096 16.94-12.623 23.33-19.03l.365-.37c-.11.007-.217.017-.33.017-2.782.001-5.036-2.253-5.036-5.034zm-87.747.828a1.97 1.97 0 1 1 0-3.942 1.97 1.97 0 1 1 0 3.942zm7.26-8.1c0-2.154 1.747-3.9 3.9-3.9a3.9 3.9 0 0 1 0 7.801 3.9 3.9 0 0 1-3.9-3.9zm6.51 28.416a2.48 2.48 0 1 1 0-4.962 2.48 2.48 0 0 1 2.481 2.481c0 1.37-1.11 2.48-2.48 2.48zM50.15 18.3c2.157 0 3.906 1.75 3.906 3.907a3.91 3.91 0 0 1-3.906 3.906c-2.157 0-3.906-1.75-3.906-3.906s1.75-3.907 3.906-3.907zm.948 67.38a4.41 4.41 0 0 1-4.408-4.407 4.41 4.41 0 0 1 4.408-4.409 4.41 4.41 0 0 1 4.408 4.409 4.41 4.41 0 0 1-4.408 4.407zm6.43-33.87c-2.742 0-4.965-2.223-4.965-4.966s2.223-4.965 4.965-4.965 4.965 2.224 4.965 4.965S60.27 51.8 57.528 51.8zm15.02 22.164c-1.81 0-3.276-1.467-3.276-3.276s1.467-3.275 3.276-3.275 3.276 1.466 3.276 3.275-1.466 3.276-3.276 3.276zM87.32 26.28c2.123 0 3.843 1.72 3.843 3.844s-1.72 3.843-3.843 3.843-3.844-1.72-3.844-3.843 1.72-3.844 3.844-3.844zM84 52.843a7.21 7.21 0 0 1-7.209-7.209 7.21 7.21 0 0 1 7.209-7.209 7.21 7.21 0 0 1 7.21 7.209 7.21 7.21 0 0 1-7.21 7.209zm9.6 5.695a1.97 1.97 0 1 1 0-3.942 1.97 1.97 0 1 1 0 3.942z"></path>
</svg>
